<?xml version="1.0" encoding="UTF-8" standalone="no"?>
<svg
   height="128"
   width="128"
   version="1.1"
   id="svg88"
   sodipodi:docname="icon.svg"
   inkscape:version="1.2.2 (b0a8486541, 2022-12-01)"
   xmlns:inkscape="http://www.inkscape.org/namespaces/inkscape"
   xmlns:sodipodi="http://sodipodi.sourceforge.net/DTD/sodipodi-0.dtd"
   xmlns="http://www.w3.org/2000/svg"
   xmlns:svg="http://www.w3.org/2000/svg">
  <defs
     id="defs92" />
  <sodipodi:namedview
     id="namedview90"
     pagecolor="#ffffff"
     bordercolor="#000000"
     borderopacity="0.25"
     inkscape:showpageshadow="2"
     inkscape:pageopacity="0.0"
     inkscape:pagecheckerboard="0"
     inkscape:deskcolor="#d1d1d1"
     showgrid="false"
     inkscape:zoom="6.0546875"
     inkscape:cx="64"
     inkscape:cy="64.165161"
     inkscape:window-width="1920"
     inkscape:window-height="1011"
     inkscape:window-x="0"
     inkscape:window-y="0"
     inkscape:window-maximized="1"
     inkscape:current-layer="svg88" />
  <g
     transform="translate(32 32)"
     id="g68">
    <path
       d="m-16-32c-8.86 0-16 7.13-16 15.99v95.98c0 8.86 7.13 15.99 16 15.99h96c8.86 0 16-7.13 16-15.99v-95.98c0-8.85-7.14-15.99-16-15.99z"
       fill="#363d52"
       id="path64"
       style="fill:#5a5a5a;fill-opacity:1" />
    <path
       d="m-16-32c-8.86 0-16 7.13-16 15.99v95.98c0 8.86 7.13 15.99 16 15.99h96c8.86 0 16-7.13 16-15.99v-95.98c0-8.85-7.14-15.99-16-15.99zm0 4h96c6.64 0 12 5.35 12 11.99v95.98c0 6.64-5.35 11.99-12 11.99h-96c-6.64 0-12-5.35-12-11.99v-95.98c0-6.64 5.36-11.99 12-11.99z"
       fill-opacity=".4"
       id="path66" />
  </g>
  <g
     id="g3979"
     transform="translate(1.1212903,26.315484)">
    <path
       d="m 111.79939,77.765316 c 5.05344,0 9.1471,4.094494 9.1471,9.146257 0,5.049248 -4.09366,9.145 -9.1471,9.145 -5.05009,0 -9.14165,-4.095752 -9.14165,-9.145 0,-5.051763 4.09156,-9.146257 9.14165,-9.146257"
       fill="#ffffff"
       id="path76"
       style="stroke-width:4.16261" />
    <path
       d="m 112.3419,79.96608 c 3.35191,0 6.06857,2.716664 6.06857,6.071089 0,3.352747 -2.71666,6.071089 -6.06857,6.071089 -3.35191,0 -6.07109,-2.718342 -6.07109,-6.071089 0,-3.354425 2.71918,-6.071089 6.07109,-6.071089"
       fill="#414042"
       id="path78"
       style="stroke-width:4.16261" />
  </g>
  <g
     id="g3983"
     transform="translate(-0.0883871,-28.160645)">
    <path
       d="m 111.79939,53.028634 c 5.05344,0 9.1471,-4.094494 9.1471,-9.147096 0,-5.048828 -4.09366,-9.144161 -9.1471,-9.144161 -5.05009,0 -9.14165,4.095333 -9.14165,9.144161 0,5.052602 4.09156,9.147096 9.14165,9.147096"
       fill="#ffffff"
       id="path82"
       style="stroke-width:4.16261" />
    <path
       d="m 112.3419,50.827314 c 3.35191,0 6.06857,-2.715826 6.06857,-6.067734 0,-3.355263 -2.71666,-6.071089 -6.06857,-6.071089 -3.35191,0 -6.07109,2.715826 -6.07109,6.071089 0,3.351908 2.71918,6.067734 6.07109,6.067734"
       fill="#414042"
       id="path84"
       style="stroke-width:4.16261" />
  </g>
</svg>
